<svg xmlns="http://www.w3.org/2000/svg" viewBox="0 0 500 500" fill="#FF0695"><path d="M260.58 197.65c13.07-14.71 22.57-33.66 39.51-44.33 11.14-7.02 18.06-6.93 28.02 1.55.69.59.74 2.14 2.28 1.74 1.45-.37 11.12-13.83 13.62-15.44 6.24-5.53 16.47-2.49 14.72 6.85-4.31 10.37-10.42 20.08-13.96 30.78-1.63 4.91-6.57 18.17 3.52 14.34 5.48-2.08 14.72-10.45 19.34-14.59 3.79-3.39 9.75-10.49 13.6-12.95 4.02-2.57 6.41 1.35 5.34 5.34-.62 2.33-7.35 10.04-9.34 12.29-7.78 8.86-23.63 24.98-35.9 26.06-7.07.62-12.75-2.41-14.77-9.36-1.88-6.45.27-13.35 1.97-19.66.23-.84 2.65-5.94.98-5.89l-24.1 26.05c-8.7 7.36-21.57 20.37-34.03 14.85-3.06-1.35-5.25-4.65-5.56-7.97l-1.16.06-12.85 13.21c-7.59 5.72-16.96 13.43-27.2 10.97-3.83-.92-4.91-4.05-7.68-6.02-18.51 3.68-36.56 9.04-54.89 13.47-.59.5-.58.51.01.99 2.13 1.72 3.89 1.83 4.38 5.46.8 5.96-2.8 7.52-5.86 11.27-28.51 34.86-106.42 126.34-114.13 138.14-.39.6 80.2-13.01 80.2-13.01.25-1.16-.17-.79-.64-1.1-1.16-.77-2.83-1.09-4.04-1.85-16.6-10.53-5.86-40.41 4.46-52.09 6.1-6.91 18.58 2.9 16.18 8.8-.6 1.48-3.32 3.57-4.36 4.98-5.09 6.84-12.07 19.18-7.55 27.62 3.55 6.64 12.53-.62 15.61-4.32 8.06-9.68 11.51-25.79 6.64-37.59-.93-2.26-4.02-7.06-6.26-8s-6.14-.61-9.23-2.09c-8.31-3.96-6.68-14.3 1.87-16.83 5.23-1.55 9.49-.17 14.03 2.42 2.22 1.26 8.08 6.73 9.17 7.06 2.38.73 10.78.85 13.55.71 4.97-.25 19.32-2.64 23.32-5.21.66-.42 1.3-1.06 1.72-1.72 3.36-5.2 6.39-13.35 9.45-19.07 9.73-18.16 25.83-47.37 42.53-59.27 6.9-4.92 17.61-5.94 20 4.01 3.23 13.44-10.55 39.52-19.79 49.3-1.61 1.7-4.38 3.24-5.67 4.8s-1.4 3.63-2.67 5.06c-5.25 5.9-14.38 12.39-20.98 16.88-3.72 2.53-5.37 2.1-8.21 6.54-8.21 12.83-20.45 40.48-21.24 55.47-.5 9.42 7.03 6.44 12.03 2.69 8.24-6.19 22.78-22.9 27.49-32.01 4.3-8.3 8.48-19.58 13.67-27.15 3.67-5.34 10.66-3.32 15.13-.05 6.09 4.45 1.23 10.47-1.36 15.29-3.68 6.86-18.14 29.41-17.32 35.83.07.52 0 1.14.48 1.49.69.37 1.4.29 2.13.1 4.19-1.09 23.1-27.09 26.84-32.19 11.71-15.99 22.56-32.58 33.53-49.08-4.88-.16-10.6 2.19-15.24 3.94-4.01 1.52-9.53 4.89-13.16 6.02-.6.18-1.21.16-1.83.14-1.11-4.37-2.98-7.85-7.53-9.22-2.44-.74-6.25.07-6.01-3.08 17.88-6.13 35.95-11.59 54.76-14.23l27.11-40.87c2.71-2.62 7.69-1.72 10.56.29 11.11 7.79 1.18 14.38-4.11 21.4-3.14 4.17-6.37 8.49-9.35 12.78-.59.85-2.71 3.56-1.77 4.16.74.47 7.62.29 9.13.25 12.59-.36 25.26.04 37.8 2 4.88.76 10.5 2.21 9.42 8.33-.87 4.95-4.24 9.57-9.74 8.71-3.33-.52-8.28-2.82-12.07-3.67-12.02-2.68-24.06-2.89-36.26-2.12-1.98.13-4.6-.32-6.38.02s-5.31 7.31-6.42 9.32c-17.97 32.54-30.42 68.7-37.99 105.11-.39 1.86-.3 4.19-.84 6.05-2.02 7.03-18.58 5.94-18.43-2.18.1-5.37 5.81-21.66 7.8-27.61 3.36-10.02 7.28-20.21 11.33-29.98 2.73-6.59 6.91-13.77 9.24-20.26.31-.85.98-2.26.36-3.08-11.91 14.97-22.06 31.69-34.2 46.45-3.31 4.03-11.99 14.55-16.69 15.76-6.38 1.64-14.97-.84-18.71-6.4-1.22-1.82-1.06-4.26-2.7-5.65-9 9.67-23.51 26.26-37.9 25.58-3.47-.16-6.17-1.19-8.35-3.94s-.81-4.37-5.27-3.82c-14.14 1.73-34.23 8.18-48.58 11.92-37.29 9.71-74.26 20.43-110.15 34.45-7.42 2.01-11.77-4.12-8.76-10.73 28.19-37.45 60.95-71.25 90.87-107.31 17.73-21.37 34.1-43.9 51.56-65.48l.1-1.62c-22.02 5.9-44.16 11.99-65.67 19.66-6.15 2.19-12.15 5.11-18.31 7.27-4.23 1.48-11.74 4.76-15.11.59-2.07-2.56-2.16-5.35-.94-8.28 1.58-3.81 7.35-10.14 10.01-13.59C83.42 216.38 174.82 108.28 193.48 85.1c7.91-4.6 19.6-.28 14.72 10.29-18.42 21.27-103.58 123.5-118.99 143.12l-.46 2.24 82.13-15.25c.13-.99.09-.81-.61-1.1-1.53-.64-3.59-.72-5.4-1.49-20.62-8.73-8.71-41.21 2.07-53.71 5.49-6.37 17.74 2.63 15.88 8.46-.7 2.21-4.11 5.37-5.46 7.36-4.38 6.46-10.01 16.24-7.21 24.25 3.55 10.16 14.3.26 17.86-4.76 7.51-10.61 11.19-29.36 2.54-40.22-3.54-4.44-5.62-2.85-10.31-4.45-6.42-2.19-10.9-8.1-5.9-14.23 8.07-9.89 21.72-.57 28.49 5.92 12.71 1.17 25.69.23 37.56-4.67 9.42-18.21 18.44-36.79 29.86-53.86 5.39-8.05 20.32-27.86 29.96-29.54 12.83-2.24 14.75 7.87 13.16 18.08-3.29 21.16-23.88 47-40.71 59.61-8.58 6.43-13.15 6.44-18.91 16.49-6.36 11.09-20.24 41.27-18.93 53.36.96 8.83 7.85 3.9 12.04.72 5.06-3.85 9.53-9.37 13.71-14.07Zm8.19-67.53c3.75-2.24 6.83-5.47 9.84-8.59 8.48-8.79 16.92-20.61 21.72-31.88 1.53-3.6 4.54-10.87-1.76-4.71-9.36 9.15-18.55 26.19-25.46 37.49-.75 1.22-5.34 6.37-4.34 7.7Zm-34.93 30.49-24.59 2.46c3.91 16.38 1.92 35.22-8.45 48.85-.76.99-3.17 3.78-4.01 4.57-1.5 1.41-5.29 3.38-6.39 4.57-.49.54-.35.83-.32 1.5l26.33-3.91c.65-20.55 9.76-39.42 17.44-58.04Zm54.3 25.74c-1.06 1.7-5.54 9.53-3.65 10.92.8.59 2.78-.48 3.64-.85 7.76-3.36 22.45-18.21 28.11-25 1.35-1.62 5.65-6.34 4.43-8.37-2.98-2.27-7.15-.23-10.1 1.23-8.11 4.01-17.64 14.41-22.43 22.07Zm-25.77 53.42c-1.95-.37-2.97 1.19-4.18 2.45-3.63 3.77-6.39 8.37-9.79 12.34l-20.46 32.89c.66.55 5.59-3.92 6.4-4.66 8.2-7.4 16.92-18.72 22.22-28.43.99-1.82 6.79-13.64 5.8-14.6Zm-68.86 78.18-24.38 2.92c-.29.4 1.63 8.12 1.75 9.62 1.27 16.68-4.36 36-18.19 46.22l.79 1.2 22.6-3.4c1.08-20.02 10.14-38.29 17.44-56.56Z"/><path d="M412.08 350.59c-7.51 6.96-19.7 16.91-30.67 13.33-11.55-3.76-8.71-18.91-6.37-27.99.54-2.11 2.16-4.5 1.69-6.66-1.91 2.02-4.02 3.86-5.91 5.89-9.57 10.32-28.47 34.65-42.84 36.34-24 2.82-14.77-22.69-7.67-34.71 8.23-13.94 33.44-42.49 51.22-29.87 2.09 1.48 3.32 4.4 5.61 5.04.96-.2 7.8-9.48 9.18-10.97.94-1.02 4.22-4.47 5.14-5.16 7.71-5.82 17.25-.4 13.47 9.51s-10.22 18.97-13.56 29.22c-6.82 20.95 3.27 15.6 14.57 6.7 7.9-6.22 14.67-13.95 22.32-20.46 2.15-1.72 5.11.04 5.56 2.54.74 4.06-3.17 6.54-5.21 9.12-5.2 6.58-10.37 12.41-16.55 18.13Zm-61.85-10.71c4.92-4.65 11.26-11.03 15.42-16.3 5.14-6.51.81-7.66-5.39-5.38-8.09 2.97-17.58 12.68-22.63 19.67-4.45 6.16-13.75 21.77 1.82 11.16 3.54-2.41 7.63-6.18 10.77-9.15ZM262.43 285.92c.85.49 2.57-1.18 3.73-1.31 3.85-.4 7.71 3.38 6.81 7.3-1.5 6.56-9.94 8.38-15.19 10.73-1.57-.41-7.05-10.31-7.48-12.23-1.92-8.62 8.14-12.61 12.12-4.49ZM352.64 382.08v53.57h-13.63v-53.57h13.63ZM387.28 397.01h13.7v38.63h-13.7v-4.29c-2.91 3.66-6.85 5.5-11.82 5.5-2.81 0-5.4-.52-7.76-1.54-2.36-1.03-4.42-2.47-6.17-4.33-1.76-1.86-3.12-4.04-4.1-6.55-.98-2.51-1.47-5.24-1.47-8.21 0-2.76.48-5.38 1.43-7.87s2.28-4.66 3.99-6.51c1.71-1.86 3.74-3.32 6.1-4.4 2.36-1.08 4.97-1.62 7.83-1.62 4.82 0 8.81 1.68 11.97 5.05v-3.84Zm-17.17 19.2c0 1.26.23 2.42.68 3.5.45 1.08 1.07 2.02 1.84 2.82.78.8 1.71 1.43 2.79 1.88 1.08.45 2.25.68 3.5.68s2.35-.23 3.43-.68c1.08-.45 2.01-1.08 2.79-1.88.78-.8 1.4-1.73 1.88-2.79.48-1.05.72-2.18.72-3.39s-.24-2.35-.72-3.43-1.1-2.02-1.88-2.82c-.78-.8-1.71-1.43-2.79-1.88-1.08-.45-2.22-.68-3.43-.68s-2.42.23-3.5.68c-1.08.45-2.01 1.08-2.79 1.88-.78.8-1.39 1.72-1.84 2.75-.45 1.03-.68 2.15-.68 3.35ZM405.72 397.01h13.63v4.89c1.86-2.26 3.74-3.78 5.65-4.56 1.91-.78 4.14-1.17 6.7-1.17 2.71 0 5.03.44 6.97 1.32 1.93.88 3.58 2.12 4.93 3.73 1.1 1.31 1.86 2.76 2.26 4.37.4 1.61.6 3.44.6 5.5v24.55h-13.63v-19.5c0-1.91-.14-3.45-.41-4.63-.28-1.18-.77-2.12-1.47-2.82-.6-.6-1.28-1.03-2.03-1.28-.75-.25-1.56-.38-2.41-.38-2.31 0-4.08.69-5.31 2.07-1.23 1.38-1.84 3.35-1.84 5.91v20.63h-13.63v-38.63ZM481.02 377.78h13.7v57.86h-13.7v-4.29c-2.91 3.66-6.85 5.5-11.82 5.5-2.81 0-5.4-.53-7.76-1.58-2.36-1.05-4.42-2.51-6.17-4.37-1.76-1.86-3.12-4.04-4.1-6.55-.98-2.51-1.47-5.22-1.47-8.13 0-2.76.46-5.38 1.39-7.87.93-2.49 2.25-4.66 3.95-6.51 1.71-1.86 3.75-3.32 6.14-4.4 2.38-1.08 5.01-1.62 7.87-1.62 4.82 0 8.81 1.68 11.97 5.05V377.8Zm-17.16 38.43c0 1.26.23 2.42.68 3.5.45 1.08 1.07 2.02 1.84 2.82.78.8 1.71 1.43 2.79 1.88 1.08.45 2.25.68 3.5.68s2.35-.23 3.43-.68c1.08-.45 2.01-1.08 2.79-1.88.78-.8 1.4-1.73 1.88-2.79.48-1.05.72-2.18.72-3.39s-.24-2.35-.72-3.43-1.1-2.02-1.88-2.82c-.78-.8-1.71-1.43-2.79-1.88-1.08-.45-2.22-.68-3.43-.68s-2.35.23-3.43.68c-1.08.45-2.01 1.08-2.79 1.88-.78.8-1.41 1.72-1.88 2.75-.48 1.03-.72 2.15-.72 3.35Z"/></svg>
