<svg xmlns="http://www.w3.org/2000/svg" id="Layer_1" viewBox="0 0 329.75 116.74"><defs><style>.cls-1{fill:#003057}.cls-3{fill:#fff}</style></defs><path d="M329.75 114.7V0H186.39l50.42 114.7h92.94z" style="fill:#0070ce"/><path d="M61.98 75.24c-6.66 6.36-13.22 10.6-23.65 10.6-16.1 0-28.25-13.02-28.25-30.27S22.23 25.5 38.33 25.5c8.7 0 15.58 3 23 10.06l.49.47 6.67-7.17-.48-.45c-6.62-6.25-14.79-12-29.59-12C16.52 16.38 0 33.32 0 55.78s16.38 39.18 38.12 39.18c15.16 0 23.84-6.74 30.34-13.32l.47-.48-6.48-6.36-.47.44ZM96.49 36.04c-15.46 0-27.13 12.64-27.13 29.45s12.13 29.47 28.2 29.47c9.51 0 16.67-3.26 23.22-10.57l.44-.5-6.09-5.46-.45.47c-4.94 5.17-10.31 7.58-16.91 7.58-9.92 0-17.35-6.94-18.67-17.34h43.59l.07-.59c.09-.87.12-1.75.11-2.63 0-17.88-10.64-29.88-26.38-29.88M79.1 61.73c1.3-10.31 8.28-17.45 17.18-17.45 11 0 15.92 8.88 16.87 17.45H79.1ZM159.06 46.42V36.25h-.64c-9.11-.38-17.11 4.55-21.88 13.18V37.19h-9.55v56.49h9.55V71.04c0-15 8.33-24.62 21.21-24.62h1.31Z" class="cls-1"/><path d="m268.21 17.66-26.23 63.26-26.12-63.26h-10.85l32.69 76.55h8.35l32.69-76.55h-10.53z" class="cls-3"/><path d="M180.07 36.44h-17.16v8.6h16.67c9.93.12 15.4 5.22 15.4 14.37v1a58.304 58.304 0 0 0-16.3-2.14c-15.18 0-24.25 6.95-24.25 18.59 0 12.34 11 18 21.26 18 9.6 0 15.67-4.23 19.29-8.3v7.13h9.25V59.3c0-14.74-8.57-22.86-24.13-22.86m-2.81 50.6c-6.35 0-13.2-3.26-13.2-10.43 0-6.79 5.77-10.85 15.44-10.85 5.26 0 10.49.74 15.55 2.18v4.8c0 8.14-7.64 14.27-17.79 14.27M12.92 113.86c-.63.57-1.46.88-2.31.84H7.48v-8.92h3.13c.85-.04 1.68.26 2.31.84 1 1 .9 2.26.9 3.55s.06 2.72-.9 3.69m-.93-6.27c-.4-.41-.95-.63-1.52-.6H8.83v6.49h1.64c.57.04 1.13-.18 1.52-.6.46-.51.48-1.48.48-2.71s0-2.06-.48-2.58M15.82 114.7v-8.93h5.7v1.22h-4.35v2.61h3.71v1.2h-3.71v2.68h4.35v1.22h-5.7zM26.25 114.7H25.2l-2.93-8.93h1.41l2.05 6.49 2.05-6.49h1.43l-2.96 8.93zM30.44 114.7v-8.93h5.7v1.22h-4.35v2.61h3.71v1.2h-3.71v2.68h4.35v1.22h-5.7zM37.99 114.7v-8.93h1.35v7.71h4.3v1.22h-5.65zM50.09 113.82c-.61.64-1.46 1-2.35 1s-1.73-.36-2.34-1c-.88-.88-.87-1.87-.87-3.58s0-2.71.87-3.59c.61-.64 1.45-1.01 2.34-1 .89 0 1.74.36 2.35 1 .88.88.85 1.87.85 3.59s0 2.7-.85 3.58m-1-6.35c-.35-.36-.83-.55-1.33-.55s-.98.19-1.33.55c-.44.47-.53 1-.53 2.77s.09 2.29.53 2.77c.35.36.83.55 1.33.55s.98-.2 1.33-.55c.43-.48.52-1 .52-2.77s-.09-2.3-.52-2.77M56.33 111.19h-2v3.51h-1.38v-8.92h3.38c1.49-.09 2.78 1.05 2.87 2.54s-1.05 2.78-2.54 2.87h-.33m-.1-4.15h-2v3h2c.83 0 1.5-.67 1.5-1.5s-.67-1.5-1.5-1.5M60.83 114.7v-8.93h5.7v1.22h-4.35v2.61h3.71v1.2h-3.71v2.68h4.35v1.22h-5.7zM73.82 113.86c-.63.57-1.46.88-2.31.84h-3.13v-8.92h3.13c.85-.04 1.68.26 2.31.84 1 1 .9 2.26.9 3.55s.06 2.72-.9 3.69m-.93-6.27c-.4-.41-.95-.63-1.52-.6h-1.64v6.49h1.64c.57.04 1.13-.18 1.52-.6.46-.51.47-1.48.47-2.71s0-2.06-.47-2.58M87.01 114.7h-1.18l-1.82-6.26-1.8 6.26h-1.18l-2.33-8.93h1.43l1.55 6.38 1.79-6.38h1.09l1.8 6.38 1.55-6.38h1.43l-2.33 8.93zM90.64 105.78h1.35v8.92h-1.35zM97.34 106.99v7.71h-1.36v-7.71h-2.45v-1.22h6.26v1.22h-2.45zM106.31 114.7v-3.9h-3.63v3.9h-1.35v-8.93h1.35v3.82h3.63v-3.82h1.35v8.93h-1.35zM118.43 113.86c-.62.57-1.45.88-2.3.84h-3.14v-8.92h3.14c.85-.04 1.68.26 2.3.84 1 1 .9 2.26.9 3.55s.07 2.72-.9 3.69m-.93-6.27c-.39-.41-.94-.63-1.51-.6h-1.64v6.49h1.64c.57.04 1.12-.18 1.51-.6.47-.51.48-1.48.48-2.71s0-2.06-.48-2.58M121.34 114.7v-8.93h5.7v1.22h-4.35v2.61h3.71v1.2h-3.71v2.68h4.35v1.22h-5.7zM133.81 114.7l-1.88-3.76h-1.7v3.76h-1.35v-8.92h3.46c1.4-.12 2.64.92 2.76 2.32v.28c.04 1.11-.7 2.1-1.78 2.37l2 4-1.52-.05h.01Zm-1.58-7.66h-2v2.79h2c.77.07 1.45-.51 1.51-1.28.07-.77-.51-1.45-1.28-1.51h-.24M143.61 114.7v-5.97l-2.06 4.35h-1l-2.1-4.35v5.97h-1.36v-8.93h1.36l2.6 5.56 2.56-5.56h1.35v8.93h-1.35zM152.4 114.7l-.61-1.8h-3.56l-.62 1.8h-1.38l3.27-8.93h1.09l3.27 8.93h-1.46Zm-2.34-6.91-1.39 4h2.74l-1.35-4ZM157.37 106.99v7.71h-1.35v-7.71h-2.46v-1.22h6.27v1.22h-2.46zM166.36 113.82c-.62.64-1.47 1-2.36 1s-1.73-.36-2.34-1c-.88-.88-.87-1.87-.87-3.58s0-2.71.87-3.59c.61-.64 1.46-1 2.34-1s1.74.36 2.36 1c.87.88.85 1.87.85 3.59s0 2.7-.85 3.58m-1-6.35c-.35-.36-.83-.55-1.33-.55s-.98.19-1.33.55c-.44.47-.52 1-.52 2.77s.08 2.29.52 2.77c.35.36.83.55 1.33.55s.98-.2 1.33-.55c.44-.48.52-1 .52-2.77s-.08-2.3-.52-2.77M169.21 114.7v-8.93h1.35v7.71h4.3v1.22h-5.65zM181.31 113.82c-1.31 1.27-3.39 1.27-4.7 0-.88-.88-.86-1.87-.86-3.58s0-2.71.86-3.59c1.31-1.27 3.39-1.27 4.7 0 .88.88.85 1.87.85 3.59s0 2.7-.85 3.58m-1-6.35c-.73-.73-1.91-.73-2.64 0-.44.47-.53 1-.53 2.77s.09 2.29.53 2.77c.73.73 1.91.73 2.64 0 .44-.48.53-1 .53-2.77s-.09-2.3-.53-2.77M189.5 113.76c-.64.67-1.53 1.03-2.45 1-.89 0-1.73-.36-2.35-1-.87-.88-.86-1.87-.86-3.59s0-2.7.86-3.58c.61-.64 1.46-1 2.35-1 1.64-.07 3.05 1.14 3.24 2.77h-1.36c-.14-.92-.95-1.59-1.88-1.55-.5 0-.98.19-1.32.55-.44.47-.54 1-.54 2.76s.1 2.31.54 2.79c.35.36.82.55 1.32.54.55.01 1.08-.22 1.45-.63.32-.39.48-.89.45-1.4v-.38h-1.9v-1.15h3.26v1.37c.09.92-.21 1.83-.81 2.52M192.29 105.78h1.35v8.92h-1.35zM198.35 114.77c-1.18.09-2.33-.34-3.16-1.18l.9-.89c.6.61 1.43.92 2.28.86 1.17 0 1.84-.5 1.84-1.37.02-.35-.11-.68-.35-.93-.28-.24-.63-.37-1-.37l-1.06-.15c-.62-.06-1.22-.31-1.69-.72-.45-.45-.69-1.07-.65-1.7 0-1.56 1.13-2.62 3-2.62 1.02-.06 2.02.3 2.77 1l-.87.86c-.52-.49-1.23-.74-1.94-.69-1 0-1.63.6-1.63 1.39 0 .31.11.62.34.83.29.22.64.36 1 .41l1 .15c.61.04 1.2.27 1.67.66.49.48.76 1.14.72 1.83 0 1.64-1.34 2.62-3.2 2.62M206.39 106.99v7.71h-1.36v-7.71h-2.45v-1.22h6.26v1.22h-2.45zM212.75 114.77c-1.18.09-2.33-.34-3.16-1.18l.9-.89c.6.6 1.43.92 2.28.86 1.17 0 1.85-.5 1.85-1.37.02-.35-.11-.69-.36-.93-.28-.24-.63-.37-1-.37l-1.03-.15c-.63-.06-1.22-.31-1.7-.72-.45-.45-.69-1.07-.65-1.7 0-1.56 1.13-2.62 3-2.62 1.02-.06 2.02.3 2.77 1l-.86.86c-.52-.49-1.23-.74-1.94-.69-1.06 0-1.63.6-1.63 1.39 0 .31.11.62.34.83.29.23.64.37 1 .41l1 .15c.61.04 1.2.27 1.67.66.5.47.77 1.14.73 1.83 0 1.64-1.34 2.62-3.21 2.62" class="cls-1"/><path d="M292.03 36.04c-15.46 0-27.12 12.67-27.12 29.48s12.12 29.47 28.19 29.47c9.51 0 16.67-3.26 23.22-10.57l.45-.5-6.1-5.46-.45.47c-4.93 5.17-10.3 7.58-16.9 7.58-9.93 0-17.35-6.94-18.68-17.34h43.59l.07-.59c.09-.87.12-1.75.11-2.63.01-17.91-10.6-29.91-26.38-29.91m16.66 25.72h-34c1.31-10.31 8.29-17.45 17.18-17.45 11 0 15.93 8.88 16.87 17.45M0 100.83h222.48v13.99H0z" class="cls-3"/><path d="M10.57 113.09c-.54.54-1.32.8-2.21.8h-3v-8.54h3c.89 0 1.67.26 2.21.8.92.92.86 2.17.86 3.41s.06 2.6-.86 3.53Zm-.89-6c-.36-.4-.84-.58-1.45-.58H6.66v6.21h1.57c.61 0 1.09-.18 1.45-.58.44-.49.46-1.42.46-2.59s-.01-1.98-.46-2.47ZM13.36 113.9v-8.54h5.46v1.16h-4.16v2.5h3.55v1.15h-3.55v2.57h4.16v1.16h-5.46ZM22.86 113.97c-1.28 0-2.21-.3-3.02-1.13l.86-.85c.62.62 1.31.82 2.18.82 1.12 0 1.76-.48 1.76-1.31 0-.37-.11-.68-.34-.89-.22-.2-.43-.29-.94-.36l-1.01-.14c-.7-.1-1.25-.34-1.62-.68-.42-.4-.62-.94-.62-1.63 0-1.49 1.08-2.51 2.85-2.51 1.13 0 1.92.29 2.65.97l-.83.82c-.53-.5-1.14-.66-1.86-.66-1.01 0-1.56.58-1.56 1.33 0 .31.1.59.32.79.22.19.56.34.96.4l.97.14c.79.12 1.24.31 1.6.64.47.41.7 1.02.7 1.75 0 1.57-1.28 2.51-3.07 2.51ZM32.58 113.9l-.59-1.71h-3.37l-.59 1.71h-1.38l3.13-8.54h1.04l3.13 8.54h-1.38Zm-2.24-6.61-1.33 3.79h2.63l-1.3-3.79ZM39.88 113.9l-1.8-3.6h-1.62v3.6h-1.3v-8.54h3.31c1.62 0 2.65 1.04 2.65 2.49 0 1.22-.74 2-1.7 2.27l1.97 3.78h-1.51Zm-1.5-7.38h-1.92v2.67h1.92c.86 0 1.45-.49 1.45-1.33s-.59-1.34-1.45-1.34ZM47.74 113.9l-1.8-3.6h-1.62v3.6h-1.3v-8.54h3.31c1.62 0 2.65 1.04 2.65 2.49 0 1.22-.74 2-1.7 2.27l1.97 3.78h-1.51Zm-1.5-7.38h-1.92v2.67h1.92c.86 0 1.45-.49 1.45-1.33s-.59-1.34-1.45-1.34ZM55.9 113.06c-.59.59-1.34.91-2.25.91s-1.66-.32-2.24-.91c-.84-.84-.83-1.79-.83-3.43s-.01-2.59.83-3.43c.59-.59 1.33-.91 2.24-.91s1.67.32 2.25.91c.84.84.82 1.79.82 3.43s.02 2.59-.82 3.43Zm-.98-6.08c-.3-.32-.77-.53-1.27-.53s-.97.2-1.27.53c-.42.46-.5.94-.5 2.65s.08 2.19.5 2.65c.3.32.77.53 1.27.53s.97-.2 1.27-.53c.42-.46.5-.94.5-2.65s-.08-2.2-.5-2.65ZM58.64 113.9v-8.54h1.3v7.38h4.11v1.16h-5.41ZM65.53 113.9v-8.54h1.3v7.38h4.11v1.16h-5.41ZM77.32 113.9l-.59-1.71h-3.37l-.59 1.71h-1.38l3.13-8.54h1.04l3.13 8.54h-1.38Zm-2.24-6.61-1.33 3.79h2.63l-1.3-3.79ZM85.12 113.09c-.54.54-1.32.8-2.21.8h-3v-8.54h3c.89 0 1.67.26 2.21.8.92.92.86 2.17.86 3.41s.06 2.6-.86 3.53Zm-.89-6c-.36-.4-.84-.58-1.45-.58h-1.57v6.21h1.57c.61 0 1.09-.18 1.45-.58.44-.49.46-1.42.46-2.59s-.01-1.98-.46-2.47ZM92.92 113.06c-.59.59-1.34.91-2.25.91s-1.66-.32-2.24-.91c-.84-.84-.83-1.79-.83-3.43s-.01-2.59.83-3.43c.59-.59 1.33-.91 2.24-.91s1.67.32 2.25.91c.84.84.82 1.79.82 3.43s.02 2.59-.82 3.43Zm-.98-6.08c-.3-.32-.77-.53-1.27-.53s-.97.2-1.27.53c-.42.46-.5.94-.5 2.65s.08 2.19.5 2.65c.3.32.77.53 1.27.53s.97-.2 1.27-.53c.42-.46.5-.94.5-2.65s-.08-2.2-.5-2.65ZM101.3 113.97c-.89 0-1.66-.32-2.24-.91-.84-.84-.83-1.79-.83-3.43s-.01-2.59.83-3.43c.59-.59 1.36-.91 2.24-.91 1.57 0 2.75.92 3.05 2.63h-1.32c-.2-.86-.78-1.46-1.73-1.46-.5 0-.96.19-1.26.52-.42.46-.52.95-.52 2.66s.1 2.21.52 2.66c.3.32.76.52 1.26.52.95 0 1.54-.6 1.74-1.46h1.31c-.29 1.7-1.5 2.63-3.05 2.63ZM111.09 113.06c-.59.59-1.34.91-2.25.91s-1.66-.32-2.24-.91c-.84-.84-.83-1.79-.83-3.43s-.01-2.59.83-3.43c.59-.59 1.33-.91 2.24-.91s1.67.32 2.25.91c.84.84.82 1.79.82 3.43s.02 2.59-.82 3.43Zm-.98-6.08c-.3-.32-.77-.53-1.27-.53s-.97.2-1.27.53c-.42.46-.5.94-.5 2.65s.08 2.19.5 2.65c.3.32.77.53 1.27.53s.97-.2 1.27-.53c.42-.46.5-.94.5-2.65s-.08-2.2-.5-2.65ZM119.07 113.9l-3.95-6.01v6.01h-1.3v-8.54h1.19l3.95 6v-6h1.3v8.54h-1.19ZM130.58 113.09c-.54.54-1.32.8-2.21.8h-3v-8.54h3c.89 0 1.67.26 2.21.8.92.92.86 2.17.86 3.41s.06 2.6-.86 3.53Zm-.89-6c-.36-.4-.84-.58-1.45-.58h-1.57v6.21h1.57c.61 0 1.09-.18 1.45-.58.44-.49.46-1.42.46-2.59s-.01-1.98-.46-2.47ZM133.37 113.9v-8.54h5.46v1.16h-4.16v2.5h3.55v1.15h-3.55v2.57h4.16v1.16h-5.46ZM145.32 113.9l-1.8-3.6h-1.62v3.6h-1.3v-8.54h3.31c1.62 0 2.65 1.04 2.65 2.49 0 1.22-.74 2-1.7 2.27l1.97 3.78h-1.51Zm-1.5-7.38h-1.92v2.67h1.92c.86 0 1.45-.49 1.45-1.33s-.59-1.34-1.45-1.34ZM154.7 113.9v-5.71l-1.97 4.16h-.96l-2.01-4.16v5.71h-1.3v-8.54h1.3l2.49 5.31 2.45-5.31h1.3v8.54h-1.3ZM163.12 113.9l-.59-1.71h-3.37l-.59 1.71h-1.38l3.13-8.54h1.04l3.13 8.54h-1.38Zm-2.24-6.61-1.33 3.79h2.63l-1.29-3.79ZM167.89 106.52v7.38h-1.29v-7.38h-2.35v-1.16h6v1.16h-2.35ZM176.49 113.06c-.59.59-1.34.91-2.25.91s-1.66-.32-2.24-.91c-.84-.84-.83-1.79-.83-3.43s-.01-2.59.83-3.43c.59-.59 1.33-.91 2.24-.91s1.67.32 2.25.91c.84.84.82 1.79.82 3.43s.02 2.59-.82 3.43Zm-.98-6.08c-.3-.32-.77-.53-1.27-.53s-.97.2-1.27.53c-.42.46-.5.94-.5 2.65s.08 2.19.5 2.65c.3.32.77.53 1.27.53s.97-.2 1.27-.53c.42-.46.5-.94.5-2.65s-.08-2.2-.5-2.65Zm-.97-2.45h-.92l.9-1.94h1.36l-1.33 1.94ZM179.23 113.9v-8.54h1.3v7.38h4.11v1.16h-5.41ZM190.82 113.06c-.59.59-1.34.91-2.25.91s-1.66-.32-2.24-.91c-.84-.84-.83-1.79-.83-3.43s-.01-2.59.83-3.43c.59-.59 1.33-.91 2.24-.91s1.67.32 2.25.91c.84.84.82 1.79.82 3.43s.02 2.59-.82 3.43Zm-.98-6.08c-.3-.32-.77-.53-1.27-.53s-.97.2-1.27.53c-.42.46-.5.94-.5 2.65s.08 2.19.5 2.65c.3.32.77.53 1.27.53s.97-.2 1.27-.53c.42-.46.5-.94.5-2.65s-.08-2.2-.5-2.65ZM198.67 113c-.65.68-1.45.97-2.35.97s-1.66-.32-2.24-.91c-.84-.84-.83-1.79-.83-3.43s-.01-2.59.83-3.43c.59-.59 1.33-.91 2.24-.91 1.81 0 2.87 1.19 3.11 2.65h-1.31c-.22-.94-.84-1.49-1.8-1.49-.5 0-.96.2-1.26.53-.42.46-.52.94-.52 2.65s.1 2.21.52 2.66c.3.32.76.52 1.26.52.56 0 1.06-.22 1.39-.6.31-.36.43-.79.43-1.34v-.48h-1.82v-1.1h3.12v1.31c0 1.1-.2 1.81-.77 2.41ZM206.36 113.06c-.59.59-1.34.91-2.25.91s-1.66-.32-2.24-.91c-.84-.84-.83-1.79-.83-3.43s-.01-2.59.83-3.43c.59-.59 1.33-.91 2.24-.91s1.67.32 2.25.91c.84.84.82 1.79.82 3.43s.02 2.59-.82 3.43Zm-.98-6.08c-.3-.32-.77-.53-1.27-.53s-.97.2-1.27.53c-.42.46-.5.94-.5 2.65s.08 2.19.5 2.65c.3.32.77.53 1.27.53s.97-.2 1.27-.53c.42-.46.5-.94.5-2.65s-.08-2.2-.5-2.65ZM211.36 113.97c-1.28 0-2.21-.3-3.02-1.13l.86-.85c.62.62 1.31.82 2.18.82 1.12 0 1.76-.48 1.76-1.31 0-.37-.11-.68-.34-.89-.22-.2-.43-.29-.94-.36l-1.01-.14c-.7-.1-1.25-.34-1.62-.68-.42-.4-.62-.94-.62-1.63 0-1.49 1.08-2.51 2.85-2.51 1.13 0 1.92.29 2.65.97l-.83.82c-.53-.5-1.14-.66-1.86-.66-1.01 0-1.56.58-1.56 1.33 0 .31.1.59.32.79.22.19.56.34.96.4l.97.14c.79.12 1.24.31 1.59.64.47.41.7 1.02.7 1.75 0 1.57-1.28 2.51-3.07 2.51Z" class="cls-1"/></svg>