<?xml version="1.0" encoding="UTF-8"?>
<!DOCTYPE svg PUBLIC "-//W3C//DTD SVG 1.1//EN" "http://www.w3.org/Graphics/SVG/1.1/DTD/svg11.dtd">
<svg xmlns="http://www.w3.org/2000/svg" version="1.1" width="2096px" height="1525px" style="shape-rendering:geometricPrecision; text-rendering:geometricPrecision; image-rendering:optimizeQuality; fill-rule:evenodd; clip-rule:evenodd" xmlns:xlink="http://www.w3.org/1999/xlink">
<g><path style="opacity:1" fill="#dbbad4" d="M 1197.5,-0.5 C 1231.83,-0.5 1266.17,-0.5 1300.5,-0.5C 1333.15,1.03267 1365.82,3.366 1398.5,6.5C 1497.79,17.8237 1593.79,41.657 1686.5,78C 1767.86,111.207 1842.19,156.54 1909.5,214C 1959.55,259.042 2001.05,310.875 2034,369.5C 2073.41,444.023 2093.91,523.689 2095.5,608.5C 2095.5,612.833 2095.5,617.167 2095.5,621.5C 2094.67,635.327 2094.17,649.327 2094,663.5C 2085.34,737.822 2065.34,808.822 2034,876.5C 1995.26,955.233 1946.26,1026.9 1887,1091.5C 1801.23,1183.29 1704.07,1260.46 1595.5,1323C 1404.76,1430.47 1200.59,1495.3 983,1517.5C 955.688,1520.81 928.188,1522.64 900.5,1523C 899.944,1523.38 899.611,1523.88 899.5,1524.5C 863.5,1524.5 827.5,1524.5 791.5,1524.5C 791.389,1523.88 791.056,1523.38 790.5,1523C 678.19,1519.17 568.857,1499.84 462.5,1465C 388.719,1439.49 319.052,1405.15 253.5,1362C 235.03,1348.13 216.697,1334.29 198.5,1320.5C 169.757,1295.31 142.923,1267.98 118,1238.5C 45.8615,1148.04 6.36153,1045.37 -0.5,930.5C -0.5,915.5 -0.5,900.5 -0.5,885.5C 1.37025,861.264 3.87025,836.931 7,812.5C 11.663,792.514 16.3296,772.514 21,752.5C 35.4521,704.293 54.2854,657.96 77.5,613.5C 118.813,538.727 168.98,470.727 228,409.5C 298.529,337.917 376.696,275.417 462.5,222C 675.724,93.1595 907.391,19.4928 1157.5,1C 1171.01,0.831025 1184.34,0.331025 1197.5,-0.5 Z"/></g>
<g><path style="opacity:1" fill="#c71263" d="M 40.5,925.5 C 40.2657,904.817 40.5991,884.151 41.5,863.5C 42.0351,849.78 43.2018,836.114 45,822.5C 48.5583,803.846 52.5583,785.179 57,766.5C 60.2899,757.743 62.9566,748.743 65,739.5C 81.3627,691.084 102.363,644.751 128,600.5C 174.097,525.361 229.597,457.528 294.5,397C 406.253,294.912 531.753,215.079 671,157.5C 689.665,148.371 708.832,140.704 728.5,134.5C 743.99,128.333 759.49,122.333 775,116.5C 869.741,85.0264 966.907,62.1931 1066.5,48C 1140.58,39.3714 1214.92,35.7048 1289.5,37C 1383.19,39.9076 1475.19,53.2409 1565.5,77C 1642.14,98.3291 1714.81,128.996 1783.5,169C 1843.53,205.007 1896.37,249.84 1942,303.5C 2030.64,413.498 2066.8,539.331 2050.5,681C 2043.55,725.288 2032.71,768.455 2018,810.5C 1985.59,890.633 1941.59,963.966 1886,1030.5C 1806.57,1123.3 1715.07,1201.46 1611.5,1265C 1492.71,1337.08 1366.05,1391.75 1231.5,1429C 1213.31,1433.43 1195.31,1438.1 1177.5,1443C 1155.64,1447.07 1133.97,1451.74 1112.5,1457C 1084.02,1461.41 1055.68,1466.08 1027.5,1471C 905.804,1486.12 784.137,1486.12 662.5,1471C 576.295,1457.91 492.962,1435.24 412.5,1403C 338.055,1371.61 270.388,1329.27 209.5,1276C 143.643,1216.03 95.4768,1144.53 65,1061.5C 58.2733,1039.84 52.6066,1017.84 48,995.5C 43.1206,972.419 40.6206,949.086 40.5,925.5 Z"/></g>
<g><path style="opacity:1" fill="#dbbad4" d="M 1181.5,72.5 C 1303.06,66.4537 1422.73,77.9537 1540.5,107C 1624.34,128.837 1703.34,162.17 1777.5,207C 1809.45,227.495 1839.45,250.661 1867.5,276.5C 1868.39,277.325 1868.72,278.325 1868.5,279.5C 1858.78,280.761 1849.45,283.261 1840.5,287C 1815.88,292.15 1791.88,298.816 1768.5,307C 1764.53,307.853 1760.53,308.519 1756.5,309C 1721.9,319.735 1686.9,329.402 1651.5,338C 1632.87,343.988 1614.2,349.655 1595.5,355C 1554.1,365.363 1513.1,376.696 1472.5,389C 1450.36,394.045 1428.36,399.711 1406.5,406C 1305.32,435.164 1203.82,463.331 1102,490.5C 1095.85,492.833 1089.68,495 1083.5,497C 1072.18,499.664 1060.85,502.331 1049.5,505C 1014.29,515.189 978.957,525.523 943.5,536C 904.125,546.576 864.791,556.91 825.5,567C 699.67,603.287 573.67,638.287 447.5,672C 419.901,680.938 391.901,688.605 363.5,695C 347.06,699.752 330.726,704.752 314.5,710C 241.249,729.749 168.083,749.915 95,770.5C 94.3333,768.5 94.3333,766.5 95,764.5C 97.532,756.235 99.8653,747.902 102,739.5C 130.984,661.198 171.651,589.531 224,524.5C 297.72,435.759 382.887,360.093 479.5,297.5C 556.87,248.315 638.204,206.815 723.5,173C 780.477,151.65 838.143,132.983 896.5,117C 937.146,107.896 977.812,99.2289 1018.5,91C 1048.15,86.5857 1077.82,82.5857 1107.5,79C 1132.33,76.9811 1157,74.8145 1181.5,72.5 Z"/></g>
<g><path style="opacity:1" fill="#c71263" d="M 1335.5,140.5 C 1336.98,140.238 1338.31,140.571 1339.5,141.5C 1330.16,186.358 1321.16,231.191 1312.5,276C 1316.31,291.42 1320.81,306.586 1326,321.5C 1328.54,330.636 1330.37,339.969 1331.5,349.5C 1320.44,351.096 1309.78,353.93 1299.5,358C 1295.53,358.828 1291.53,359.328 1287.5,359.5C 1281.18,336.549 1275.01,313.549 1269,290.5C 1238.3,256.377 1207.64,222.377 1177,188.5C 1176.52,187.552 1176.35,186.552 1176.5,185.5C 1180.57,184.186 1184.57,182.686 1188.5,181C 1199.34,177.719 1210.34,175.052 1221.5,173C 1240.92,195.264 1260.59,217.431 1280.5,239.5C 1286,210.164 1291.5,180.831 1297,151.5C 1310.08,148.131 1322.91,144.464 1335.5,140.5 Z"/></g>
<g><path style="opacity:1" fill="#c71163" d="M 1083.5,210.5 C 1085.14,210.286 1086.64,210.62 1088,211.5C 1106.29,274.339 1123.79,337.339 1140.5,400.5C 1128.26,404.852 1115.76,408.519 1103,411.5C 1102.17,411.167 1101.33,410.833 1100.5,410.5C 1070.38,378.219 1039.88,346.552 1009,315.5C 1018.66,353.101 1028.82,390.601 1039.5,428C 1039.09,428.945 1038.43,429.612 1037.5,430C 1029.39,431.956 1021.39,434.289 1013.5,437C 1009.52,438.197 1005.52,438.864 1001.5,439C 984.43,377.563 967.263,316.063 950,254.5C 949.333,252.167 949.333,249.833 950,247.5C 962.443,244.078 974.943,240.912 987.5,238C 1018.28,270.114 1049.11,302.28 1080,334.5C 1079.24,329.192 1078.24,323.859 1077,318.5C 1067.75,286.327 1058.92,254.16 1050.5,222C 1050.64,221.228 1050.98,220.561 1051.5,220C 1062.07,216.26 1072.73,213.093 1083.5,210.5 Z"/></g>
<g><path style="opacity:1" fill="#c71163" d="M 849.5,274.5 C 851.288,274.215 852.955,274.548 854.5,275.5C 844.175,299.469 834.842,323.802 826.5,348.5C 822.661,353.183 821.161,358.517 822,364.5C 853.694,396.86 885.361,429.193 917,461.5C 917.591,462.483 917.257,463.15 916,463.5C 904.109,466.865 892.276,470.365 880.5,474C 876.551,475.184 872.551,475.518 868.5,475C 847.214,452.38 825.548,429.88 803.5,407.5C 800.667,413.494 797.834,419.494 795,425.5C 793.263,431.027 791.763,436.527 790.5,442C 795.079,459.09 799.413,476.256 803.5,493.5C 801.231,494.815 798.898,495.982 796.5,497C 787.315,499.062 778.315,501.728 769.5,505C 766.812,505.392 764.145,505.892 761.5,506.5C 760.833,506.167 760.167,505.833 759.5,505.5C 751.703,479.458 744.537,453.125 738,426.5C 733.413,414.927 730.08,402.927 728,390.5C 722.421,369.652 716.421,348.986 710,328.5C 708.971,323.856 708.138,319.19 707.5,314.5C 720.191,311.335 732.858,307.835 745.5,304C 747.81,303.503 750.143,303.337 752.5,303.5C 758.665,329.328 765.498,354.995 773,380.5C 784.932,349.537 796.766,318.537 808.5,287.5C 821.054,282.457 834.054,278.79 847.5,276.5C 848.713,276.253 849.38,275.586 849.5,274.5 Z"/></g>
<g><path style="opacity:1" fill="#dbbad4" d="M 1894.5,307.5 C 1898.15,307.622 1900.98,309.288 1903,312.5C 1987.96,410.706 2026.29,525.039 2018,655.5C 2016.89,666.572 2015.39,677.572 2013.5,688.5C 1405.23,856.897 797.232,1025.56 189.5,1194.5C 186.459,1195.51 183.459,1195.51 180.5,1194.5C 90.0344,1081.8 57.8677,953.801 84,810.5C 85.6095,809.853 87.1095,809.02 88.5,808C 150.126,791.928 211.46,774.928 272.5,757C 281.567,755.299 290.567,753.299 299.5,751C 308.614,748.248 317.614,745.248 326.5,742C 431.895,713.735 536.895,684.735 641.5,655C 912.424,580.696 1182.76,505.696 1452.5,430C 1478.98,422.631 1505.65,415.631 1532.5,409C 1653.43,375.108 1774.1,341.275 1894.5,307.5 Z"/></g>
<g><path style="opacity:1" fill="#c71163" d="M 547.5,359.5 C 589.636,357.465 619.136,375.798 636,414.5C 637.637,422.1 639.97,429.434 643,436.5C 649.013,460.93 648.846,485.264 642.5,509.5C 632.823,530.339 617.156,544.839 595.5,553C 574.433,558.552 553.433,564.052 532.5,569.5C 531.558,569.392 530.725,569.059 530,568.5C 514.372,511.089 498.372,453.756 482,396.5C 481.123,390.346 479.956,384.346 478.5,378.5C 501.424,371.522 524.424,365.189 547.5,359.5 Z"/></g>
<g><path style="opacity:1" fill="#c71163" d="M 1811.5,395.5 C 1837.07,394.253 1856.9,404.253 1871,425.5C 1873.69,430.181 1876.36,434.848 1879,439.5C 1879.49,441.134 1879.66,442.801 1879.5,444.5C 1868.1,449.189 1856.43,453.356 1844.5,457C 1842.83,458.167 1841.17,459.333 1839.5,460.5C 1836.16,453.004 1831.5,446.504 1825.5,441C 1813.65,435.336 1803.15,437.169 1794,446.5C 1788.19,463.086 1792.02,477.253 1805.5,489C 1821.5,499.888 1838.5,508.888 1856.5,516C 1875.31,524.5 1891.81,536.333 1906,551.5C 1923.73,576.279 1927.07,602.945 1916,631.5C 1912.11,637.423 1907.61,642.923 1902.5,648C 1889.42,657.87 1874.75,664.537 1858.5,668C 1843.58,669.776 1829.58,667.11 1816.5,660C 1799.85,648.113 1788.19,632.446 1781.5,613C 1782.27,611.779 1783.27,610.779 1784.5,610C 1796.17,605.595 1807.5,600.595 1818.5,595C 1820.13,594.506 1821.8,594.34 1823.5,594.5C 1826.64,608.281 1834.31,618.781 1846.5,626C 1858.64,627.546 1868.81,623.713 1877,614.5C 1881.87,598.624 1878.03,585.29 1865.5,574.5C 1861.83,571.667 1858.17,568.833 1854.5,566C 1838.11,557.472 1821.44,549.472 1804.5,542C 1781.77,531.937 1764.94,515.77 1754,493.5C 1735.81,447.611 1749.65,416.111 1795.5,399C 1801.03,398.114 1806.36,396.947 1811.5,395.5 Z"/></g>
<g><path style="opacity:1" fill="#dbb9d3" d="M 539.5,398.5 C 555.916,395.797 569.416,400.797 580,413.5C 596.042,437.692 602.708,464.358 600,493.5C 595.009,511.671 583.176,521.004 564.5,521.5C 562.514,514.682 561.014,507.682 560,500.5C 552.986,476.709 545.986,453.043 539,429.5C 536.831,420.158 534.664,410.824 532.5,401.5C 535.346,401.448 537.68,400.448 539.5,398.5 Z"/></g>
<g><path style="opacity:1" fill="#c71163" d="M 1697.5,429.5 C 1699.14,429.286 1700.64,429.62 1702,430.5C 1720.67,498.558 1739.34,566.558 1758,634.5C 1761.17,676.335 1742.34,702.168 1701.5,712C 1674.86,718.826 1652.36,712.326 1634,692.5C 1630.32,687.123 1626.82,681.623 1623.5,676C 1603.79,606.328 1584.46,536.494 1565.5,466.5C 1580.38,462.364 1595.38,458.697 1610.5,455.5C 1629.3,522.386 1647.8,589.386 1666,656.5C 1668.38,663.543 1672.88,668.71 1679.5,672C 1703.8,674.366 1714.63,663.532 1712,639.5C 1693.64,574.087 1675.14,508.587 1656.5,443C 1657.68,441.265 1659.35,440.265 1661.5,440C 1673.87,437.081 1685.87,433.581 1697.5,429.5 Z"/></g>
<g><path style="opacity:0.004" fill="#000000" d="M 178.5,461.5 C 179.833,462.167 179.833,462.167 178.5,461.5 Z"/></g>
<g><path style="opacity:1" fill="#c71163" d="M 1469.5,489.5 C 1503.03,486.695 1526.86,500.361 1541,530.5C 1555.33,581.532 1569.33,632.532 1583,683.5C 1586.14,724.032 1567.97,749.532 1528.5,760C 1514.14,763.258 1499.81,763.258 1485.5,760C 1470.34,754.19 1458.84,744.024 1451,729.5C 1450.06,724.952 1448.06,720.952 1445,717.5C 1443.92,711.851 1442.92,706.184 1442,700.5C 1428.7,656.915 1416.37,612.915 1405,568.5C 1400.92,530.926 1416.75,506.092 1452.5,494C 1458.53,493.124 1464.2,491.624 1469.5,489.5 Z"/></g>
<g><path style="opacity:1" fill="#c71163" d="M 1342.5,528.5 C 1343.5,528.5 1344.5,528.5 1345.5,528.5C 1369.27,614.708 1392.93,701.041 1416.5,787.5C 1403.97,790.508 1391.47,793.841 1379,797.5C 1376.21,798.216 1373.37,798.549 1370.5,798.5C 1369.03,790.871 1367.53,783.204 1366,775.5C 1343.49,698.284 1321.99,620.784 1301.5,543C 1301.59,541.893 1301.92,540.893 1302.5,540C 1315.94,536.35 1329.27,532.517 1342.5,528.5 Z"/></g>
<g><path style="opacity:1" fill="#dbb9d3" d="M 1467.5,531.5 C 1481.56,528.432 1491.4,533.432 1497,546.5C 1499.92,559.194 1503.58,571.528 1508,583.5C 1511.61,600.596 1516.28,617.263 1522,633.5C 1525.94,652.543 1530.94,671.21 1537,689.5C 1540.59,706.344 1534.09,716.677 1517.5,720.5C 1505.83,723.327 1497.33,719.327 1492,708.5C 1478.42,660.648 1465.09,612.648 1452,564.5C 1446.51,548.165 1451.67,537.165 1467.5,531.5 Z"/></g>
<g><path style="opacity:1" fill="#c71163" d="M 1196.5,565.5 C 1228.99,563.048 1252.49,576.381 1267,605.5C 1271.33,617.291 1274.49,629.291 1276.5,641.5C 1261.4,644.423 1246.4,647.756 1231.5,651.5C 1229.79,638.539 1225.63,626.539 1219,615.5C 1212.9,608.01 1205.07,605.51 1195.5,608C 1180.19,612.778 1175.03,622.945 1180,638.5C 1193.11,682.617 1205.45,726.951 1217,771.5C 1218.77,777.924 1221.43,783.924 1225,789.5C 1231.81,796.681 1239.98,798.514 1249.5,795C 1259.73,792.057 1264.73,785.224 1264.5,774.5C 1263.43,763.51 1260.93,752.843 1257,742.5C 1256.64,739.475 1256.14,736.475 1255.5,733.5C 1255.83,732.833 1256.17,732.167 1256.5,731.5C 1270.51,726.748 1284.84,723.081 1299.5,720.5C 1302.83,732.149 1306,743.815 1309,755.5C 1315.26,795.163 1299.43,821.33 1261.5,834C 1215.39,845.539 1185.56,828.706 1172,783.5C 1161.34,741.192 1149.67,699.192 1137,657.5C 1125.65,618.573 1137.81,590.073 1173.5,572C 1181.14,569.344 1188.8,567.177 1196.5,565.5 Z"/></g>
<g><path style="opacity:1" fill="#c71263" d="M 1067.5,603.5 C 1069.83,603.5 1072.17,603.5 1074.5,603.5C 1091.29,663.699 1107.79,724.032 1124,784.5C 1128.94,797.877 1132.61,811.543 1135,825.5C 1138.65,837.77 1142.15,850.103 1145.5,862.5C 1130.45,866.014 1115.45,870.014 1100.5,874.5C 1077.55,788.439 1053.88,702.606 1029.5,617C 1029.64,616.228 1029.98,615.561 1030.5,615C 1032.25,614.529 1033.91,613.862 1035.5,613C 1043.77,610.802 1052.1,608.802 1060.5,607C 1063.07,606.102 1065.4,604.935 1067.5,603.5 Z"/></g>
<g><path style="opacity:1" fill="#c71163" d="M 926.5,643.5 C 928.144,643.286 929.644,643.62 931,644.5C 950.796,716.477 970.963,788.477 991.5,860.5C 994.81,861.349 998.144,861.182 1001.5,860C 1021.36,853.991 1041.36,848.491 1061.5,843.5C 1063.73,855.097 1066.9,866.43 1071,877.5C 1071.8,879.259 1071.63,880.926 1070.5,882.5C 1033.26,892.766 996.098,903.099 959,913.5C 958.228,913.355 957.561,913.022 957,912.5C 933.407,827.626 909.907,742.793 886.5,658C 886.354,655.812 887.354,654.479 889.5,654C 902.032,650.986 914.366,647.486 926.5,643.5 Z"/></g>
<g><path style="opacity:1" fill="#c71163" d="M 847.5,665.5 C 849.167,665.5 850.833,665.5 852.5,665.5C 856.284,678.302 859.618,691.302 862.5,704.5C 837.765,710.85 813.099,717.183 788.5,723.5C 794.464,745.433 800.464,767.433 806.5,789.5C 807,789.833 807.5,790.167 808,790.5C 826.548,784.372 845.382,779.372 864.5,775.5C 867.817,788.459 871.15,801.459 874.5,814.5C 855.738,818.09 837.405,823.09 819.5,829.5C 818.369,831.074 818.202,832.741 819,834.5C 824.595,857.781 830.928,880.781 838,903.5C 838.414,903.957 838.914,904.291 839.5,904.5C 863.586,897.978 887.586,891.145 911.5,884C 913.81,883.503 916.143,883.337 918.5,883.5C 920.253,893 922.753,902.333 926,911.5C 926.42,915.191 926.92,918.858 927.5,922.5C 886.148,934.475 844.815,945.809 803.5,956.5C 800.005,940.536 795.838,924.869 791,909.5C 788.662,899.458 786.329,889.458 784,879.5C 766.528,819.788 749.694,759.788 733.5,699.5C 733.977,698.522 734.643,697.689 735.5,697C 773.003,686.463 810.337,675.963 847.5,665.5 Z"/></g>
<g><path style="opacity:1" fill="#c71063" d="M 636.5,724.5 C 666.819,721.076 689.652,732.41 705,758.5C 709.406,767.186 713.073,776.186 716,785.5C 716.34,789.558 717.007,793.558 718,797.5C 728.329,831.523 737.996,865.857 747,900.5C 755.87,942.042 740.703,970.209 701.5,985C 679.093,990.911 656.76,997.245 634.5,1004C 632.527,1004.5 630.527,1004.66 628.5,1004.5C 611.749,940.583 594.583,876.916 577,813.5C 573.743,800.491 569.743,787.824 565,775.5C 562.721,765.504 560.555,755.504 558.5,745.5C 584.73,738.779 610.73,731.779 636.5,724.5 Z"/></g>
<g><path style="opacity:1" fill="#dbbad4" d="M 1999.5,728.5 C 2001.5,728.5 2003.5,728.5 2005.5,728.5C 1994.36,775.127 1977.86,819.794 1956,862.5C 1915.03,939.337 1863.53,1008.67 1801.5,1070.5C 1758.32,1113.2 1712.32,1152.37 1663.5,1188C 1527.54,1283.13 1379.21,1352.46 1218.5,1396C 1078.55,1434.17 935.886,1451.17 790.5,1447C 734.799,1444.56 679.466,1438.56 624.5,1429C 599.346,1422.48 574.013,1416.81 548.5,1412C 486.941,1394.79 427.608,1372.13 370.5,1344C 316.712,1315.76 267.379,1281.1 222.5,1240C 217.668,1235.67 213.335,1230.83 209.5,1225.5C 299.31,1199.84 389.31,1175.01 479.5,1151C 648.619,1102.96 818.286,1055.96 988.5,1010C 1053.15,990.92 1118.15,972.92 1183.5,956C 1231.39,941.699 1279.39,928.366 1327.5,916C 1355.25,906.643 1383.59,898.976 1412.5,893C 1418.43,890.745 1424.43,888.578 1430.5,886.5C 1532.15,859.223 1633.49,831.056 1734.5,802C 1823.1,778.184 1911.44,753.684 1999.5,728.5 Z"/></g>
<g><path style="opacity:1" fill="#dbb9d3" d="M 630.5,764.5 C 645.614,761.474 657.114,766.474 665,779.5C 678.116,825.164 690.783,870.83 703,916.5C 706.373,929.58 702.539,939.747 691.5,947C 682.721,950.394 673.721,953.227 664.5,955.5C 664.167,955 663.833,954.5 663.5,954C 659.786,941.068 655.953,928.234 652,915.5C 648.353,901.58 645.02,887.58 642,873.5C 636.937,860.125 632.604,846.459 629,832.5C 623.199,811.725 618.032,790.725 613.5,769.5C 619.591,768.898 625.257,767.232 630.5,764.5 Z"/></g>
<g><path style="opacity:1" fill="#c71163" d="M 437.5,778.5 C 441.03,777.989 444.196,778.656 447,780.5C 449.164,789.323 451.831,797.989 455,806.5C 455.626,809.863 455.959,813.196 456,816.5C 442.474,819.333 429.308,823.166 416.5,828C 405.595,830.947 394.595,833.447 383.5,835.5C 384.397,843.291 385.897,850.958 388,858.5C 392.886,872.778 397.052,887.278 400.5,902C 406.082,901.922 411.416,900.589 416.5,898C 422.987,897.815 428.987,896.149 434.5,893C 442.426,890.872 450.426,889.039 458.5,887.5C 460.843,896.926 463.343,906.259 466,915.5C 466.936,919.114 467.436,922.78 467.5,926.5C 450.083,931.75 432.417,936.583 414.5,941C 413.484,941.519 412.818,942.353 412.5,943.5C 416.084,961.166 420.917,978.499 427,995.5C 428.782,1002.37 430.282,1009.37 431.5,1016.5C 437.815,1015.46 444.148,1014.29 450.5,1013C 466.925,1008.15 483.259,1003.15 499.5,998C 503.79,997.077 508.123,996.577 512.5,996.5C 515.019,1007.22 517.853,1017.89 521,1028.5C 521.497,1030.81 521.663,1033.14 521.5,1035.5C 518.126,1035.67 514.793,1036.17 511.5,1037C 476.654,1047.37 441.654,1057.37 406.5,1067C 403.854,1067.5 401.187,1067.66 398.5,1067.5C 374.314,982.446 350.647,897.279 327.5,812C 328.952,810.435 330.619,809.102 332.5,808C 362.748,800.675 392.748,792.342 422.5,783C 426.469,782.147 430.469,781.481 434.5,781C 436.119,780.764 437.119,779.931 437.5,778.5 Z"/></g>
<g><path style="opacity:1" fill="#c71163" d="M 227.5,837.5 C 270.963,832.134 297.463,850.801 307,893.5C 310.764,910.493 308.43,926.493 300,941.5C 298.128,944.582 295.795,947.249 293,949.5C 292.517,950.448 292.351,951.448 292.5,952.5C 306.3,955.239 317.966,961.905 327.5,972.5C 346.182,999.415 351.016,1028.75 342,1060.5C 335.493,1075.01 324.993,1085.51 310.5,1092C 305.155,1093.17 300.155,1095.17 295.5,1098C 274.802,1103.07 254.135,1108.41 233.5,1114C 230.539,1114.94 227.706,1116.11 225,1117.5C 223.779,1116.73 222.779,1115.73 222,1114.5C 199.193,1029.29 175.693,944.291 151.5,859.5C 176.64,851.277 201.974,843.944 227.5,837.5 Z"/></g>
<g><path style="opacity:1" fill="#c70f62" d="M 1690.5,859.5 C 1718.55,855.117 1741.05,864.117 1758,886.5C 1767.43,904.266 1773.1,923.266 1775,943.5C 1780.71,983.278 1766.55,1013.11 1732.5,1033C 1720.7,1038.94 1708.53,1044.1 1696,1048.5C 1697.35,1063.27 1698.18,1078.1 1698.5,1093C 1700.73,1123.09 1686.9,1139.26 1657,1141.5C 1636.28,1140.79 1624.28,1130.12 1621,1109.5C 1619.63,1098.03 1617.63,1086.7 1615,1075.5C 1609.54,1029.18 1604.2,982.846 1599,936.5C 1598.19,925.794 1598.52,915.127 1600,904.5C 1601.92,897.062 1605.76,890.729 1611.5,885.5C 1623.6,876.74 1636.94,870.573 1651.5,867C 1658.32,865.948 1664.99,864.281 1671.5,862C 1677.98,861.138 1684.31,860.305 1690.5,859.5 Z"/></g>
<g><path style="opacity:1" fill="#dbb9d3" d="M 224.5,877.5 C 244.75,876.23 257.25,885.564 262,905.5C 266.224,919.472 263.391,931.639 253.5,942C 244.813,947.062 235.48,950.229 225.5,951.5C 219.579,929.248 213.579,907.081 207.5,885C 207.645,884.228 207.978,883.561 208.5,883C 214.015,881.346 219.348,879.512 224.5,877.5 Z"/></g>
<g><path style="opacity:1" fill="#d06094" d="M 41.5,863.5 C 40.5991,884.151 40.2657,904.817 40.5,925.5C 39.8335,915.339 39.5002,905.005 39.5,894.5C 39.5013,883.811 40.168,873.478 41.5,863.5 Z"/></g>
<g><path style="opacity:1" fill="#c70e62" d="M 1472.5,915.5 C 1500.11,912.601 1523.61,920.934 1543,940.5C 1565.66,967.423 1579.66,998.423 1585,1033.5C 1588.6,1063.28 1586.6,1092.62 1579,1121.5C 1560.89,1171.93 1525.06,1195.43 1471.5,1192C 1452.35,1189.34 1436.52,1180.5 1424,1165.5C 1403.85,1140.91 1392.51,1112.57 1390,1080.5C 1386.04,1044.39 1391.04,1009.72 1405,976.5C 1414.69,955.983 1428.85,939.316 1447.5,926.5C 1455.84,922.405 1464.17,918.738 1472.5,915.5 Z"/></g>
<g><path style="opacity:1" fill="#dbb5d0" d="M 1677.5,932.5 C 1681.43,932.047 1684.59,933.38 1687,936.5C 1692.82,945.379 1695.32,955.213 1694.5,966C 1694.47,970.556 1693.97,975.056 1693,979.5C 1691.52,983.488 1688.68,985.154 1684.5,984.5C 1680.45,975.668 1677.62,966.335 1676,956.5C 1675.33,949.5 1675.33,942.5 1676,935.5C 1676.51,934.473 1677.01,933.473 1677.5,932.5 Z"/></g>
<g><path style="opacity:1" fill="#c70f62" d="M 1277.5,971.5 C 1314.04,967.472 1339.54,982.139 1354,1015.5C 1362.66,1039.47 1365.49,1064.14 1362.5,1089.5C 1359.08,1108.16 1350.08,1123.66 1335.5,1136C 1327.58,1141.54 1319.42,1146.71 1311,1151.5C 1302.61,1155.57 1293.78,1158.57 1284.5,1160.5C 1283.13,1170.22 1283.63,1179.89 1286,1189.5C 1287.2,1204.14 1286.36,1218.64 1283.5,1233C 1268.65,1253.39 1249.32,1259.05 1225.5,1250C 1215.25,1243.67 1210.09,1234.5 1210,1222.5C 1209.12,1219.74 1208.12,1217.08 1207,1214.5C 1204.01,1193.26 1201.01,1171.93 1198,1150.5C 1194.97,1117.75 1191.3,1085.08 1187,1052.5C 1185.87,1039.38 1186.54,1026.38 1189,1013.5C 1194.09,1003.41 1201.59,995.577 1211.5,990C 1233.15,982.137 1255.15,975.971 1277.5,971.5 Z"/></g>
<g><path style="opacity:1" fill="#dbb9d3" d="M 258.5,983.5 C 274.293,981.494 285.793,987.494 293,1001.5C 297.793,1011.73 300.293,1022.56 300.5,1034C 300.026,1048.3 293.026,1057.63 279.5,1062C 272.217,1064.16 264.884,1065.99 257.5,1067.5C 253.168,1047.85 247.668,1028.52 241,1009.5C 239.925,1002.37 238.425,995.371 236.5,988.5C 243.885,986.559 251.218,984.893 258.5,983.5 Z"/></g>
<g><path style="opacity:1" fill="#dbb6d1" d="M 1474.5,1016.5 C 1476.93,1016.58 1478.93,1017.58 1480.5,1019.5C 1494.01,1046.84 1499.51,1075.84 1497,1106.5C 1492.59,1110.48 1488.25,1110.48 1484,1106.5C 1483,1102.84 1481.17,1099.67 1478.5,1097C 1470.71,1074.19 1468.05,1050.69 1470.5,1026.5C 1471.26,1022.88 1472.59,1019.54 1474.5,1016.5 Z"/></g>
<g><path style="opacity:1" fill="#c70f62" d="M 1025.5,1043.5 C 1044.6,1040.62 1055.76,1048.62 1059,1067.5C 1059.67,1076.5 1059.67,1085.5 1059,1094.5C 1057.11,1098.44 1054.61,1101.94 1051.5,1105C 1046.37,1107.48 1041.37,1110.15 1036.5,1113C 1018.73,1118.59 1000.73,1123.59 982.5,1128C 966.443,1140.18 965.443,1153.51 979.5,1168C 983.167,1168.67 986.833,1168.67 990.5,1168C 1000.31,1164.67 1010.31,1162.17 1020.5,1160.5C 1027,1160.04 1032.5,1162.04 1037,1166.5C 1042.18,1179.19 1044.18,1192.52 1043,1206.5C 1040.83,1211.33 1037.33,1214.83 1032.5,1217C 1018.57,1220.55 1004.57,1223.88 990.5,1227C 981.167,1236.67 981.167,1246.33 990.5,1256C 992.333,1256.17 994.167,1256.33 996,1256.5C 1009.98,1252.4 1024.15,1248.9 1038.5,1246C 1061.63,1243.15 1074.46,1253.32 1077,1276.5C 1077.67,1283.17 1077.67,1289.83 1077,1296.5C 1074.82,1302.04 1071.32,1306.54 1066.5,1310C 1033.22,1323.9 998.885,1334.24 963.5,1341C 955.833,1341.67 948.167,1341.67 940.5,1341C 935.164,1338.67 930.664,1335.17 927,1330.5C 923.205,1324.25 920.539,1317.58 919,1310.5C 914.915,1277.9 911.248,1245.23 908,1212.5C 907.632,1202.15 906.966,1191.81 906,1181.5C 903.457,1163.21 901.124,1144.88 899,1126.5C 898.13,1114.12 898.464,1101.79 900,1089.5C 902.454,1085.71 905.288,1082.21 908.5,1079C 914.63,1075.22 920.963,1071.89 927.5,1069C 954.51,1062.18 981.177,1054.51 1007.5,1046C 1013.65,1045.16 1019.65,1044.33 1025.5,1043.5 Z"/></g>
<g><path style="opacity:1" fill="#dbb8d2" d="M 1265.5,1045.5 C 1267.6,1045.2 1269.6,1045.53 1271.5,1046.5C 1277.38,1052.66 1280.88,1060 1282,1068.5C 1282.67,1074.83 1282.67,1081.17 1282,1087.5C 1281.46,1090.36 1280.46,1093.03 1279,1095.5C 1275.43,1098.53 1272.76,1097.87 1271,1093.5C 1264.07,1078.05 1262.24,1062.05 1265.5,1045.5 Z"/></g>
<g><path style="opacity:1" fill="#c71062" d="M 795.5,1104.5 C 824.759,1102.07 847.259,1113.07 863,1137.5C 871.744,1157.09 872.744,1177.09 866,1197.5C 862.06,1203.44 856.894,1207.94 850.5,1211C 825.091,1214.57 808.924,1204.07 802,1179.5C 800.47,1183.09 799.136,1186.76 798,1190.5C 793.328,1215.01 792.328,1239.68 795,1264.5C 798.058,1281.27 804.391,1296.6 814,1310.5C 815.674,1311.68 817.174,1313.01 818.5,1314.5C 814.875,1283.15 828.541,1265.15 859.5,1260.5C 867.91,1262.03 875.077,1266.03 881,1272.5C 891.876,1287.69 895.876,1304.69 893,1323.5C 888.354,1344.82 876.188,1360.32 856.5,1370C 831.194,1381.88 805.194,1383.54 778.5,1375C 766.524,1368.7 756.69,1359.86 749,1348.5C 745.063,1341.63 741.397,1334.63 738,1327.5C 735.154,1319.46 732.488,1311.46 730,1303.5C 724.414,1274.79 722.414,1245.79 724,1216.5C 726.183,1188.4 734.516,1162.4 749,1138.5C 760.572,1121.38 776.072,1110.04 795.5,1104.5 Z"/></g>
<g><path style="opacity:0.004" fill="#000000" d="M 1867.5,1113.5 C 1868.83,1114.17 1868.83,1114.17 1867.5,1113.5 Z"/></g>
<g><path style="opacity:1" fill="#c71062" d="M 665.5,1141.5 C 671.176,1141.33 676.843,1141.5 682.5,1142C 688.798,1148.1 692.298,1155.6 693,1164.5C 701.422,1242.22 705.422,1320.22 705,1398.5C 701,1415.15 690.334,1423.82 673,1424.5C 661.232,1424.12 651.566,1419.45 644,1410.5C 642.725,1408.28 641.725,1405.95 641,1403.5C 630.283,1343.52 624.449,1283.02 623.5,1222C 623.003,1204.06 624.003,1186.22 626.5,1168.5C 627.917,1158.93 632.917,1152.1 641.5,1148C 649.547,1145.51 657.547,1143.35 665.5,1141.5 Z"/></g>
<g><path style="opacity:0.004" fill="#fe00ff" d="M 1788.5,1187.5 C 1789.83,1188.17 1789.83,1188.17 1788.5,1187.5 Z"/></g>
<g><path style="opacity:0.004" fill="#000000" d="M 81.5,1190.5 C 82.8333,1191.17 82.8333,1191.17 81.5,1190.5 Z"/></g>
<g><path style="opacity:0.004" fill="#000000" d="M 1660.5,1283.5 C 1661.83,1284.17 1661.83,1284.17 1660.5,1283.5 Z"/></g>
<g><path style="opacity:0.004" fill="#fe0000" d="M 198.5,1320.5 C 197.833,1321.17 197.833,1321.17 198.5,1320.5 Z"/></g>
</svg>
