<svg version="1.1" xmlns="http://www.w3.org/2000/svg" xmlns:xlink="http://www.w3.org/1999/xlink" class="logo--image dkny_logo" x="0px" y="0px" width="101.8" height="22.9" xml:space="preserve" viewBox="8.9 21 101.8 22.9">
  <g>
    <path class="dkny_logo_st0" d="M22.6,21H8.9v22.9h13.7c9.3,0,12.6-4.9,12.6-11.4C35.2,25.9,31.9,21,22.6,21z M22.6,37.6h-6.1V27.3h6.1   c2.9,0,5,1.4,5,5.1C27.6,36.1,25.6,37.6,22.6,37.6z"></path>
    <polygon class="dkny_logo_st0" points="77.1,34.5 68.8,21 60.1,21 60.1,43.9 67.5,43.9 67.5,30.4 76,43.9 84.4,43.9 84.4,21 77.1,21  "></polygon>
    <polygon class="dkny_logo_st0" points="102.8,21 97.9,29.6 97.6,30.1 97.3,29.6 92.4,21 84.4,21 93.8,36.8 93.8,36.8 93.8,43.9 101.3,43.9    101.3,36.8 101.3,36.8 110.7,21  "></polygon>
    <polygon class="dkny_logo_st0" points="59.8,21 50.9,21 42.7,29 42.7,21 35.2,21 35.2,32.5 35.2,43.9 42.7,43.9 42.7,37.5 44.3,35.9    51.5,43.9 60.1,43.9 49.1,31.6  "></polygon>
  </g>
</svg>
