<svg xmlns="http://www.w3.org/2000/svg" xml:space="preserve" id="Capa_1" x="0" y="0" style="enable-background:new 0 0 138 34.9" version="1.1" viewBox="0 0 138 34.9"><style>.st0{fill:#167db7}</style><g id="Logo_3_"><g id="InfoJobs_3_"><path d="M0 26.8c0 .3.3.5.6.5h5c.3 0 .6-.2.7-.6L9.4.6V.5C9.4.2 9.2 0 9 0H3.6c-.3 0-.4.2-.4.5L0 26.8zM29.6 11.7c0 .8-.1 1.6-.2 2.4l-1.6 12.6c0 .3-.3.6-.6.6h-4.6c-.3 0-.6-.2-.6-.5v-.1l1.5-12.2c.1-.5.1-1.1.1-1.5 0-.6-.1-1.1-.4-1.4-.4-.4-1-.6-1.9-.6-1.8 0-3.9.5-3.9.5l-1.9 15.3c0 .3-.3.6-.7.6h-4.6c-.3 0-.6-.2-.6-.5v-.1l2-16.4c.5-1.5 1.4-1.9 3.7-2.4 2-.4 5-.9 7.3-.9 2.7 0 4.7.4 5.9 1.5.6.7 1.1 1.7 1.1 3.1zM77.1.5c0-.3-.1-.4-.4-.4H71.3c-.3 0-.5.2-.5.5L67.5 28c-.5 2.8-1.7 2.8-3.6 2.9-.8 0-1.5 0-2 .1-.6 0-.8.2-.9.8l-.3 2.2v.2c0 .5.3.6.7.6.7.1 1 .2 3.6.2 4.4 0 8-1.3 8.7-7.2L77.1.5z" class="st0"/><path d="M64.1 21.9c-1.2 3.4-3.8 5.7-9.8 5.7-3.4 0-5.5-.7-6.8-2s-1.7-3.2-1.7-5.3c0-2.4.5-6 1.4-8.1 1.3-3.2 3.9-5.3 9.6-5.3 3.4 0 5.6.8 6.8 2 1.3 1.3 1.7 3 1.7 5.2 0 2.4-.4 5.7-1.2 7.8m-5.3-10.3c-.5-.5-1.2-.8-2.5-.8-2.7 0-3.6 1.2-4.1 3.9-.3 1.8-.6 3.9-.6 5.8 0 1.2.2 2 .7 2.5s1.2.7 2.4.7c2.8 0 3.6-1.3 4.1-4.1.3-1.8.6-3.7.6-5.5 0-1.2-.1-2-.6-2.5M96.4 21.9c-1.2 3.4-3.8 5.7-9.8 5.7-3.4 0-5.5-.7-6.8-2s-1.7-3.2-1.7-5.3c0-2.4.5-6 1.4-8.1 1.3-3.2 3.9-5.3 9.7-5.3 3.4 0 5.6.8 6.8 2 1.3 1.3 1.7 3 1.7 5.2-.1 2.4-.5 5.7-1.3 7.8m-5.3-10.3c-.5-.5-1.2-.8-2.5-.8-2.7 0-3.6 1.2-4.1 3.9-.3 1.8-.6 3.9-.6 5.8 0 1.2.1 2 .7 2.5.5.5 1.2.7 2.4.7 2.8 0 3.6-1.3 4.1-4.1.3-1.8.6-3.7.6-5.5.1-1.2-.1-2-.6-2.5M118.4 21.3c-1.3 4.2-3.9 6.3-9.9 6.3-2.9 0-5.5-.4-6.9-.9-1.5-.5-1.8-1.1-1.8-2.1 0-.5.1-1.1.2-1.8L102.6.9c0-.5.3-.8.8-.9H108c.3 0 .6.2.6.5v.1l-.6 4.8-.3 2.2s2.3-.7 4.7-.7c2.5 0 4.3.5 5.4 1.6s1.7 2.8 1.7 5.4c0 2.4-.4 5.1-1.1 7.4m-5.3-9.6c-.5-.6-1.3-.8-2.5-.8-1.5 0-3.5.5-3.5.5l-1.5 12s1.3.3 2.9.3c2.7 0 3.8-.8 4.5-4.7.3-1.6.5-3.3.5-5 .1-1.1-.1-1.9-.4-2.3M137.2 11c-.1.3-.3.4-.6.4h-.2c-.4 0-2.5-.5-4.5-.5-.9 0-2.1.1-2.8.7-.5.4-.7 1-.7 1.6 0 1.6 1.7 1.6 3.5 2 1.5.2 3 .6 4 1.6.8.7 1.2 1.8 1.2 3.5 0 1.8-.6 3.7-1.9 5.1-1.7 1.7-4.3 2.4-7.2 2.4-3.2 0-6.2-.8-6.8-1.1-.1-.1-.3-.1-.3-.4V26l.8-2.4c.1-.3.3-.5.5-.5h.2c.5.1 3.1.9 5.4.9 1.1 0 2-.2 2.7-.8.6-.5.8-1.1.8-1.7 0-.8-.3-1.2-.8-1.5s-1.2-.4-2.1-.5c-1.4-.3-3.3-.5-4.5-1.7-.7-.8-1.2-1.8-1.2-3.3 0-1.7.4-3.4 1.5-4.7 1.9-2.3 5.1-2.6 7.5-2.6 3 0 5.3.6 6 .9.3.1.3.3.3.5v.2l-.8 2.2zM46.4.7c-.6-.2-2.3-.6-5-.6-4.4 0-6.7 2-7.2 6L34 8.5l-.5 4.1-1.8 13.2v.3l-.1.7c0 .3.3.4.6.4h4.4c.3 0 .7-.1.8-.5v-.3l2-13.8H44c.3 0 .6-.2.6-.6l.4-3c0-.3-.2-.5-.5-.5h-4.8l.3-2.4c.2-1.6.9-2 2.7-2 1 0 2.2.2 2.6.3h.2c.3 0 .4-.2.5-.5l.7-2.6v-.2c0-.2-.1-.4-.3-.4z" class="st0"/></g></g></svg>