<?xml version="1.0" encoding="utf-8"?>
<svg xmlns="http://www.w3.org/2000/svg" viewBox="7.0637 -130.2074 296.0815 183.226" width="296.082px" height="183.226px" preserveAspectRatio="none"><g transform="matrix(1, 0, 0, 1, 77.61409759521484, -9.968780517578125)" id="object-2"><g transform="matrix(1, 0, 0, 1, -1.42405, 0.356)" id="object-1"><path stroke-width="0" d="M 185.801 -120.2 C 191.902 -120.87 195.35 -120.56 198.541 -120.2 C 200.795 -119.95 201.723 -119.55 203.723 -118.9 C 206.241 -118.09 209.882 -116.99 212.576 -115.45 C 215.238 -113.92 217.691 -112.13 219.809 -109.73 C 222.094 -107.14 224.452 -103.65 225.639 -100.23 C 226.824 -96.811 227.029 -92.561 226.935 -89.214 C 226.85 -86.223 226.074 -83.332 225.423 -81.008 C 224.878 -79.066 224.654 -78.437 223.48 -76.042 C 221.368 -71.737 213.685 -61.116 212.036 -55.961 C 210.945 -52.553 211.492 -51.212 211.604 -47.756 C 211.759 -42.957 212.678 -35.038 213.547 -29.187 C 214.361 -23.708 216.097 -18.404 216.57 -13.64 C 216.989 -9.426 216.844 -5.943 216.57 -1.981 C 216.287 2.113 215.563 7.156 214.843 10.543 C 214.282 13.18 213.896 14.633 212.9 17.021 C 211.688 19.922 209.587 24.127 207.717 26.737 C 206.129 28.955 204.737 30.33 202.643 32.027 C 200.228 33.986 196.914 36.271 193.79 37.641 C 190.718 38.989 188.35 39.682 184.074 40.232 C 177.935 41.022 167.473 40.847 159.243 40.664 C 151.064 40.483 143.053 39.899 134.843 39.153 C 126.501 38.395 115.534 36.524 109.58 36.13 C 105.755 35.877 104.438 35.873 101.159 36.13 C 97.07 36.45 90.255 37.446 86.692 38.289 C 84.208 38.877 84.227 38.829 81.078 40.232 C 73.899 43.431 45.633 59.139 39.621 61.609 C 37.473 62.491 37.676 62.303 36.166 62.473 C 34.015 62.714 30.404 62.652 27.529 62.473 C 24.646 62.293 21.586 62 18.892 61.393 C 16.353 60.821 14.181 60.099 11.764 59.018 C 9.151 57.846 6.181 56.282 3.771 54.483 C 1.401 52.711 -0.669 50.571 -2.599 48.33 C -4.529 46.075 -6.059 43.901 -7.779 40.988 C -9.809 37.539 -11.509 32.194 -13.819 28.681 C -15.919 25.498 -17.229 23.767 -20.839 20.583 C -26.399 15.685 -40.069 7.616 -46.539 2.446 C -51.319 -1.381 -54.539 -4.331 -57.439 -7.595 C -59.919 -10.39 -61.709 -13.179 -63.269 -15.8 C -64.649 -18.121 -65.609 -20.191 -66.509 -22.493 C -67.409 -24.797 -68.249 -26.846 -68.669 -29.619 C -69.169 -32.936 -69.289 -37.646 -68.879 -41.279 C -68.509 -44.666 -67.479 -48.119 -66.509 -50.779 C -65.699 -53.006 -65.099 -54.249 -63.699 -56.393 C -61.829 -59.254 -58.289 -63.719 -55.609 -66.434 C -53.289 -68.775 -51.479 -70.222 -48.699 -72.048 C -45.409 -74.199 -41.189 -76.552 -36.819 -78.309 C -32.109 -80.204 -26.279 -81.716 -21.269 -82.844 C -16.579 -83.901 -12.369 -83.889 -7.669 -85.003 C -2.609 -86.202 4.251 -88.277 8.091 -89.969 C 10.831 -91.171 11.704 -91.851 14.144 -93.641 C 17.606 -96.181 22.652 -101.58 27.098 -104.65 C 31.302 -107.56 35.613 -110.12 40.053 -111.78 C 44.33 -113.38 48.792 -114.12 53.224 -114.59 C 57.646 -115.05 61.91 -114.75 66.612 -114.59 C 71.662 -114.41 76.133 -114.25 82.59 -113.51 C 91.074 -112.52 107.278 -109.14 113.899 -108.54 C 117.63 -108.2 118.28 -108.3 121.456 -108.54 C 125.872 -108.87 130.932 -109.62 138.514 -110.91 C 149.957 -112.87 175.414 -119.05 185.801 -120.2 Z" style="stroke-width: 2px; fill-rule: nonzero; paint-order: stroke markers; fill: rgb(231, 126, 0); stroke: rgb(231, 126, 0);" id="object-0"/></g><g id="g955" transform="matrix(1, 0, 0, 1, -23.003, -84.4547)"><path fill="#c60046" d="m 181.30525,10.680762 c 0.37996,-6.3727521 5.50216,-10.97899861 10.66569,-10.66569385 5.16353,0.31330475 8.37524,5.62615345 7.99927,11.99890485 -0.37596,6.372753 -4.16895,10.978999 -9.33248,10.665694 -5.16353,-0.313304 -9.71245,-5.619487 -9.33248,-11.998905" id="path2" style="stroke-width:1.33321"/><path fill="#ffffff" d="M 88.409721,48.130679 C 85.556648,30.222979 69.744757,35.674482 70.651341,46.958786 68.50087,45.390929 67.336976,44.205704 63.547989,44.615 a 13.434775,13.434775 0 0 0 -7.103352,3.515679 c -4.900887,5.646152 -4.622245,15.09329 -4.735568,22.264636 a 36.744648,36.744648 0 0 0 4.735568,18.750289 c 0.975911,1.599854 1.271884,2.823743 2.367784,3.51568 a 7.732628,7.732628 0 0 0 4.735568,1.171893 9.376478,9.376478 0 0 0 7.103352,-4.687573 c 2.498438,-3.946306 3.245037,-10.347056 3.551676,-16.406503 0.231979,-4.576916 -0.03733,-14.086715 0,-14.062717 4.108958,6.132774 17.13177,7.777957 14.206704,-10.547038 M 162.99225,10.6301 c -10.65236,-0.238645 -14.73199,21.338053 -15.39059,37.499246 -0.60795,14.931971 2.85707,33.863578 13.02281,33.983567 9.19916,0.09599 12.4522,-19.651541 13.02281,-33.983567 0.7546,-18.655632 -1.40121,-37.289932 -10.65503,-37.499246 m -20.1315,37.499246 a 103.13726,103.13726 0 0 1 3.55168,-23.437862 c -2.22513,-7.63797 -5.77014,-12.068233 -10.65503,-11.718931 -10.62836,0.766596 -12.57618,22.517946 -11.83892,38.671139 0.68261,14.931971 5.25686,33.650264 15.3906,32.811674 3.63833,-0.302639 6.64473,-3.423688 8.28724,-8.203252 -3.49568,-6.990029 -5.12086,-18.618302 -4.73557,-28.130767 M 110.901,55.162038 a 7.1606802,7.1606802 0 0 0 -7.10335,-7.031359 c -3.74366,0 -5.91946,3.117049 -5.91946,7.031359 0,3.914309 2.17447,7.031358 5.91946,7.031358 a 7.1620134,7.1620134 0 0 0 7.10335,-7.031358 m 11.83892,16.406503 c -3.29703,9.275154 -9.76444,15.23461 -17.75838,15.23461 -9.960422,0 -18.428983,-9.19916 -20.131494,-22.264635 4.976879,0.98791 10.276395,-2.762415 8.287244,-15.234611 a 20.320813,20.320813 0 0 0 -3.551676,-9.375144 17.865037,17.865037 0 0 1 15.390596,-8.203252 c 5.77814,0 10.51238,2.849073 14.2067,8.203252 -0.17731,3.803653 -0.15998,8.179253 0,11.718931 a 74.957163,74.957163 0 0 0 3.55168,19.922182 m 66.29529,-43.358711 c -7.30467,-0.342636 -12.22022,13.768077 -13.02282,26.952208 -0.74126,12.190888 2.50378,26.713563 9.46581,26.952208 6.32075,0.217314 11.13498,-14.082715 11.83892,-25.781648 0.91458,-15.215946 -1.94782,-27.836128 -8.28725,-28.130768 M 41.038042,44.609667 C 47.629441,60.741529 53.726218,105.53744 37.486366,107.89056 13.309905,111.38757 19.201367,60.961509 22.09577,52.812919 16.562941,55.892638 3.3081502,63.770586 0.78704685,56.328598 -3.0046073,45.129619 6.9104883,27.797867 30.384347,16.485566 50.977135,6.5624709 73.437753,9.4195436 76.554802,18.829352 82.124961,35.62782 49.5386,44.838979 41.039375,44.611" id="path4" style="stroke-width:1.33321"/></g></g></svg>